<?xml version="1.0" encoding="utf-8"?>
<!-- Generator: Adobe Illustrator 21.0.0, SVG Export Plug-In . SVG Version: 6.00 Build 0)  -->
<svg version="1.1" id="Ebene_1" xmlns="http://www.w3.org/2000/svg" xmlns:xlink="http://www.w3.org/1999/xlink" x="0px" y="0px"
	 viewBox="0 0 76 76" style="enable-background:new 0 0 76 76;" xml:space="preserve">
<style type="text/css">
	.st0{fill:#94644B;}
	.st1{fill:none;stroke:#3A2414;stroke-miterlimit:10;}
</style>
<g>
	<path class="st0" d="M58.4,55.7h-5.3v-3.6h-1V49h-0.8l6.6-12.2l0-0.2c0-0.2-1.5-18.7-17.5-25.6l-1.7-0.7L36.9,11
		c-16.5,6.9-18.1,25.7-18.1,25.9l0,0.1l5.9,12h-0.7v3.1h-1v3.6h-5.3c-1.5,0-2.7,1.2-2.7,2.7v4.7c0,1.5,1.2,2.7,2.7,2.7h40.8
		c1.5,0,2.7-1.2,2.7-2.7v-4.7C61.1,56.9,59.9,55.7,58.4,55.7z"/>
	<g>
		<path class="st1" d="M60.5,63.2c0,1.1-0.9,2-2,2H17.5c-1.1,0-2-0.9-2-2v-5c0-1.1,0.9-2,2-2h41.1c1.1,0,2,0.9,2,2V63.2z"/>
	</g>
	<rect x="23.5" y="52.6" class="st1" width="29" height="3.6"/>
	<g>
		<path class="st1" d="M60.5,63.2c0,1.1-0.9,2-2,2H17.5c-1.1,0-2-0.9-2-2v-5c0-1.1,0.9-2,2-2h41.1c1.1,0,2,0.9,2,2V63.2z"/>
	</g>
	<polyline class="st1" points="23.5,56.2 23.5,52.6 52.5,52.6 52.5,56.2 	"/>
	<g>
		<path class="st1" d="M25.6,49.5l-6.2-12.6c0,0,1.3-18.6,17.8-25.4l1.6-0.7l1.5,0.6C56,18.4,57.3,36.7,57.3,36.7l-6.9,12.9"/>
		<path class="st1" d="M19.3,36.9c0,0,10.2-4.3,11.4,12.6"/>
		<path class="st1" d="M57.3,36.7c0,0-10.3-4.3-11.6,12.6"/>
		<path class="st1" d="M32.4,49.5c0,0,5.8,0,5.8-13.8"/>
		<path class="st1" d="M44.2,49.5c0,0-5.7,0-5.7-13.8"/>
		<polygon class="st1" points="41.9,26 43.2,27.3 45.8,24.7 43.2,22.2 42.3,23.1 39.8,23.1 39.8,20.7 40.9,19.6 38.3,17.1 
			35.8,19.6 36.9,20.7 36.9,23.1 34.2,23.1 33.2,22.2 30.7,24.7 33.2,27.3 34.5,26 36.9,26 36.9,32.3 35.8,33.4 38.3,35.9 
			40.9,33.4 39.8,32.3 39.8,26 		"/>
	</g>
	<polyline class="st1" points="24.5,52.6 24.5,49.6 51.5,49.6 51.5,52.6 	"/>
</g>
</svg>
