<?xml version="1.0" encoding="utf-8"?>
<!-- Generator: Adobe Illustrator 21.0.0, SVG Export Plug-In . SVG Version: 6.00 Build 0)  -->
<svg version="1.1" id="Ebene_1" xmlns="http://www.w3.org/2000/svg" xmlns:xlink="http://www.w3.org/1999/xlink" x="0px" y="0px"
	 viewBox="0 0 76 76" style="enable-background:new 0 0 76 76;" xml:space="preserve">
<style type="text/css">
	.st0{fill:#94644B;}
	.st1{fill:none;stroke:#3A2414;stroke-miterlimit:10;}
</style>
<g>
	<path class="st0" d="M58.7,55.1L55.8,30c-0.1-0.7-0.5-1.6-1-2.1l-11.9-12c-0.5-0.5-1.5-0.9-2.2-0.9H36l-3.8-3.7
		c-0.5-0.5-0.9-0.4-1.1-0.3c-0.2,0.1-0.5,0.3-0.5,1V13l-1.1-0.9c-0.4-0.3-0.8-0.4-1.1-0.2c-0.3,0.2-0.5,0.5-0.5,1v1.5
		c0,0.5-0.2,1.2-0.5,1.6L15.1,32.6c-0.5,0.6-0.5,1.7-0.2,2.4l3.5,6.9c0.4,0.8,1.3,1.1,2.1,0.9l10.3-3.5l-6.6,6.7
		c-0.5,0.5-1,1.3-1.2,2l-2.4,7.3h-2.4c-1.5,0-2.6,1.2-2.6,2.7v4.7c0,1.5,1.2,2.7,2.6,2.7h40.5c1.5,0,2.6-1.2,2.6-2.7v-4.7
		C61.3,56.3,60.1,55.1,58.7,55.1z"/>
	<g>
		<g>
			<path class="st1" d="M60.9,62.7c0,1.1-0.9,2-2,2H17.9c-1.1,0-2-0.9-2-2v-5c0-1.1,0.9-2,2-2h41.1c1.1,0,2,0.9,2,2V62.7z"/>
		</g>
		<g>
			<g>
				<path class="st1" d="M58.4,55.6l-3-25.7c-0.1-0.5-0.4-1.3-0.8-1.7L42.4,16.2c-0.4-0.4-1.2-0.7-1.7-0.7h-7
					c-0.6,0-1.4-0.3-1.8-0.6L29,12.5c-0.4-0.3-0.8-0.2-0.8,0.4v1.6c0,0.6-0.3,1.4-0.6,1.8L15.3,32.9c-0.3,0.4-0.4,1.2-0.1,1.7
					l1.6,3.2c0.3,0.5,0.7,1.3,0.9,1.8l1,2c0.3,0.5,0.9,0.7,1.4,0.6l11.6-3.9c0.5-0.2,0.6,0,0.2,0.4l-7.6,7.6c-0.4,0.4-0.8,1.1-1,1.7
					l-2.5,7.7"/>
			</g>
			<polyline class="st1" points="35.8,15.5 51.2,30.7 53.8,55.6 			"/>
			<polyline class="st1" points="32,38.2 37.2,36.5 37.2,29 			"/>
			<circle class="st1" cx="27.7" cy="23.1" r="1.2"/>
		</g>
		<polyline class="st1" points="38.9,15.5 53.3,30 55.9,55.6 		"/>
		<g>
			<path class="st1" d="M31,14.1v-2.3c0-0.5,0.3-0.7,0.7-0.3l4,3.9"/>
		</g>
	</g>
</g>
</svg>
