<?xml version="1.0" encoding="utf-8"?>
<!-- Generator: Adobe Illustrator 21.0.0, SVG Export Plug-In . SVG Version: 6.00 Build 0)  -->
<svg version="1.1" id="Ebene_1" xmlns="http://www.w3.org/2000/svg" xmlns:xlink="http://www.w3.org/1999/xlink" x="0px" y="0px"
	 viewBox="0 0 76 76" style="enable-background:new 0 0 76 76;" xml:space="preserve">
<style type="text/css">
	.st0{fill:#94644B;}
	.st1{fill:none;stroke:#3A2414;stroke-miterlimit:10;}
</style>
<g>
	<path class="st0" d="M58.6,53.7h-6.1l-4-15.7h3.8c1.5,0,2.7-1.2,2.7-2.7v-2.7c0-1.5-1.2-2.7-2.7-2.7h-6.1c1.8-2,2.8-4.5,2.8-7.2
		c0-6-4.8-10.8-10.8-10.8s-10.8,4.8-10.8,10.8c0,2.7,1,5.3,2.8,7.2h-6.1c-1.5,0-2.7,1.2-2.7,2.7v2.7c0,1.5,1.2,2.7,2.7,2.7h4.6
		l-4.4,15.7h-6.5c-1.5,0-2.7,1.2-2.7,2.7v4.7c0,1.5,1.2,2.7,2.7,2.7h40.8c1.5,0,2.7-1.2,2.7-2.7v-4.7C61.3,54.9,60.1,53.7,58.6,53.7
		z"/>
	<g>
		<path class="st1" d="M60.8,61.2c0,1.1-0.9,2-2,2H17.7c-1.1,0-2-0.9-2-2v-5c0-1.1,0.9-2,2-2h41.1c1.1,0,2,0.9,2,2V61.2z"/>
	</g>
	<g>
		<g>
			<path class="st1" d="M31.5,30.4c-2.2-1.9-3.5-4.7-3.5-7.8c0-5.7,4.6-10.3,10.3-10.3S48.5,17,48.5,22.7c0,3.1-1.4,5.9-3.5,7.8"/>
			<g>
				<path class="st1" d="M54.5,35.4c0,1.1-0.9,2-2,2H24c-1.1,0-2-0.9-2-2v-3c0-1.1,0.9-2,2-2h28.5c1.1,0,2,0.9,2,2V35.4z"/>
			</g>
		</g>
		<line class="st1" x1="24.7" y1="54.2" x2="29.7" y2="37.4"/>
		<line class="st1" x1="47.7" y1="37.4" x2="52.2" y2="54.2"/>
		<line class="st1" x1="38.2" y1="37.4" x2="38.2" y2="54.2"/>
		<line class="st1" x1="34.6" y1="37.4" x2="30.7" y2="54.1"/>
		<line class="st1" x1="42.2" y1="37.5" x2="46.1" y2="54.2"/>
	</g>
</g>
</svg>
