<?xml version="1.0" encoding="utf-8"?>
<!-- Generator: Adobe Illustrator 21.0.0, SVG Export Plug-In . SVG Version: 6.00 Build 0)  -->
<svg version="1.1" id="Ebene_1" xmlns="http://www.w3.org/2000/svg" xmlns:xlink="http://www.w3.org/1999/xlink" x="0px" y="0px"
	 viewBox="0 0 76 76" style="enable-background:new 0 0 76 76;" xml:space="preserve">
<style type="text/css">
	.st0{fill:#94644B;}
	.st1{fill:none;stroke:#3A2414;stroke-miterlimit:10;}
</style>
<g>
	<path class="st0" d="M58.4,55.7H55v-3.6H53l4.3-19.3c0.1-0.4,0-0.9-0.3-1.2c-0.3-0.3-0.7-0.5-1.1-0.5h-3.7v-1.5
		c0-0.9-0.7-1.6-1.6-1.6h-0.1v-3.4h4.9c0.9,0,1.6-0.7,1.6-1.6V11.8c0-0.9-0.7-1.6-1.6-1.6h-3.2c-0.9,0-1.6,0.7-1.6,1.6v4.4
		c0,0.3-0.2,0.5-0.5,0.5h-3.5c-0.3,0-0.5-0.2-0.5-0.5v-4.4c0-0.9-0.7-1.6-1.6-1.6H31.3c-0.9,0-1.6,0.7-1.6,1.6v4.4
		c0,0.3-0.2,0.5-0.5,0.5h-3.5c-0.3,0-0.5-0.2-0.5-0.5v-4.4c0-0.9-0.7-1.6-1.6-1.6h-3c-0.9,0-1.6,0.7-1.6,1.6v11.4
		c0,0.9,0.7,1.6,1.6,1.6h4.9v3.4h-0.1c-0.9,0-1.6,0.7-1.6,1.6v1.5H20c-0.4,0-0.8,0.2-1.1,0.5c-0.3,0.3-0.3,0.8-0.2,1.2l4.7,19.3H21
		v3.6h-3.4c-1.5,0-2.7,1.2-2.7,2.7v4.7c0,1.5,1.2,2.7,2.7,2.7h40.8c1.5,0,2.7-1.2,2.7-2.7v-4.7C61.1,56.9,59.9,55.7,58.4,55.7z"/>
	<g>
		<path class="st1" d="M60.5,63.3c0,1.1-0.9,2-2,2H17.5c-1.1,0-2-0.9-2-2v-5c0-1.1,0.9-2,2-2h41.1c1.1,0,2,0.9,2,2V63.3z"/>
	</g>
	<polyline class="st1" points="21.6,56.3 21.6,52.7 54.4,52.7 54.4,56.3 	"/>
	<g>
		<path class="st1" d="M33.9,52.6v-6.1c0,0,0-4.1,4.1-4.1"/>
		<path class="st1" d="M42.1,52.6v-6.1c0,0,0-4.1-4.1-4.1"/>
		<line class="st1" x1="38" y1="42.5" x2="38" y2="52.6"/>
		<line class="st1" x1="33.9" y1="46.6" x2="42.1" y2="46.6"/>
	</g>
	<line class="st1" x1="50.6" y1="28.7" x2="50.6" y2="24.2"/>
	<line class="st1" x1="25.5" y1="24.2" x2="25.5" y2="28.7"/>
	<g>
		<path class="st1" d="M55.5,24.2c0.5,0,1-0.5,1-1v-5c0-0.5,0-1.5,0-2v-4.5c0-0.6-0.5-1-1-1h-3.3c-0.6,0-1,0.4-1,1v4.5
			c0,0.5-0.5,1-1,1h-3.7c-0.5,0-1-0.5-1-1v-4.5c0-0.6-0.5-1-1-1H31.2c-0.5,0-1,0.4-1,1v4.5c0,0.5-0.4,1-1,1h-3.7c-0.5,0-1-0.5-1-1
			v-4.5c0-0.6-0.4-1-1-1h-3.1c-0.6,0-1,0.4-1,1v11.5c0,0.5,0.4,1,1,1H55.5z"/>
	</g>
	<g>
		<path class="st1" d="M51.7,31.7v-2.1c0-0.6-0.4-1-1-1h-8.8c-0.5,0-1.5,0-2,0h-3.7c-0.5,0-1.5,0-2,0h-8.9c-0.5,0-1,0.4-1,1v2.1"/>
	</g>
	<g>
		<path class="st1" d="M24,52.7l-4.8-20c-0.1-0.5,0.2-1,0.8-1H56c0.5,0,0.9,0.4,0.8,1l-4.4,20"/>
	</g>
</g>
</svg>
