<svg id="Ebene_1" data-name="Ebene 1" xmlns="http://www.w3.org/2000/svg" viewBox="0 0 76 76"><defs><style>.cls-1,.cls-3{fill:#288e8b;}.cls-2{fill:none;}.cls-2,.cls-3{stroke:#211829;stroke-miterlimit:10;}</style></defs><title>koenig blau</title><rect class="cls-1" x="15" y="57.13" width="46" height="9.2" rx="2" ry="2"/><rect class="cls-2" x="15" y="57.13" width="46" height="9.2" rx="2" ry="2"/><rect class="cls-3" x="23.08" y="53.55" width="29.84" height="3.57"/><polygon class="cls-3" points="57.55 31.91 51.02 50.49 25.27 50.49 18.45 31.91 57.55 31.91"/><line class="cls-3" x1="51.02" y1="52.49" x2="51" y2="52.56"/><line class="cls-3" x1="25.29" y1="52.56" x2="25.27" y2="52.49"/><rect class="cls-3" x="24.11" y="50.49" width="27.78" height="3.06"/><path class="cls-3" d="M57.89,27.24a18.26,18.26,0,0,1-.36,3.62H41.81a10.59,10.59,0,0,0,1.91-6.08,8.32,8.32,0,0,0-2.11-5.57l0,0a11.24,11.24,0,0,1,7-2.73,8,8,0,0,1,1.33.11,9.14,9.14,0,0,1,6.53,4.79h0a11.27,11.27,0,0,1,1.06,2.82h0A13.23,13.23,0,0,1,57.89,27.24Z"/><path class="cls-3" d="M32.37,24.85a10.48,10.48,0,0,0,1.88,6H18.63a18.11,18.11,0,0,1-.35-3.58,13.27,13.27,0,0,1,.17-2.18v0a11,11,0,0,1,1.2-3.59,9,9,0,0,1,6.61-4.76h0a7.39,7.39,0,0,1,1.13-.08,11.26,11.26,0,0,1,7,2.74h0A8.19,8.19,0,0,0,32.37,24.85Z"/><path class="cls-3" d="M43.8,25A10.32,10.32,0,0,1,42,30.86H34.29a10.33,10.33,0,0,1-1.85-5.91,8,8,0,0,1,2-5.36,6.25,6.25,0,0,1,.62-.6h0a5,5,0,0,1,2.5-1.21h.66a5,5,0,0,1,3.47,1.76h0l.05.05A8,8,0,0,1,43.8,25Z"/><polygon class="cls-3" points="41.85 12.5 39.02 12.5 39.02 9.68 36.67 9.68 36.67 12.5 33.85 12.5 33.85 14.85 36.67 14.85 36.67 17.68 39.02 17.68 39.02 14.85 41.85 14.85 41.85 12.5"/><rect class="cls-1" x="16.39" y="30.44" width="43.22" height="3.06" rx="1" ry="1"/><rect class="cls-2" x="16.39" y="30.44" width="43.22" height="3.06" rx="1" ry="1"/></svg>