<?xml version="1.0" encoding="utf-8"?>
<!-- Generator: Adobe Illustrator 21.0.0, SVG Export Plug-In . SVG Version: 6.00 Build 0)  -->
<svg version="1.1" id="Ebene_1" xmlns="http://www.w3.org/2000/svg" xmlns:xlink="http://www.w3.org/1999/xlink" x="0px" y="0px"
	 viewBox="0 0 76 76" style="enable-background:new 0 0 76 76;" xml:space="preserve">
<style type="text/css">
	.st0{fill:#CEC3BD;}
	.st1{fill:#100B17;}
	.st2{fill:#2C8E8B;}
	.st3{fill:none;stroke:#22192A;stroke-miterlimit:10;}
	.st4{fill:#94644B;}
	.st5{fill:none;stroke:#3A2414;stroke-miterlimit:10;}
	.st6{fill:#110C19;}
	.st7{fill:url(#SVGID_1_);}
	.st8{fill:url(#SVGID_2_);}
	.st9{fill:#CEC7C0;}
	.st10{fill:none;stroke:#94644B;stroke-miterlimit:10;}
	.st11{fill:#CEC7C0;stroke:#CEC7C0;stroke-width:0.3;stroke-linecap:round;stroke-linejoin:round;stroke-miterlimit:10;}
	.st12{fill:none;stroke:#CEC7C0;stroke-miterlimit:10;}
	.st13{fill:none;stroke:#2C8E8B;stroke-miterlimit:10;}
	.st14{fill:#221F36;}
	.st15{fill:url(#SVGID_3_);}
	.st16{fill:url(#SVGID_4_);}
	.st17{fill:url(#SVGID_5_);}
	.st18{fill:url(#SVGID_6_);}
	.st19{fill:url(#SVGID_7_);}
	.st20{fill:url(#SVGID_8_);}
	.st21{fill:url(#SVGID_9_);}
	.st22{fill:url(#SVGID_10_);}
	.st23{fill:url(#SVGID_11_);}
	.st24{fill:url(#SVGID_12_);}
	.st25{fill:url(#SVGID_13_);}
	.st26{fill:url(#SVGID_14_);}
	.st27{fill:url(#SVGID_15_);}
	.st28{fill:url(#SVGID_16_);}
	.st29{fill:url(#SVGID_17_);}
	.st30{fill:url(#SVGID_18_);}
	.st31{fill:url(#SVGID_19_);}
	.st32{fill:url(#SVGID_20_);}
	.st33{fill:url(#SVGID_21_);}
	.st34{fill:url(#SVGID_22_);}
	.st35{fill:url(#SVGID_23_);}
	.st36{fill:url(#SVGID_24_);}
	.st37{fill:url(#SVGID_25_);}
	.st38{fill:url(#SVGID_26_);}
	.st39{fill:url(#SVGID_27_);}
	.st40{fill:url(#SVGID_28_);}
	.st41{fill:url(#SVGID_29_);}
	.st42{fill:url(#SVGID_30_);}
	.st43{fill:url(#SVGID_31_);}
	.st44{fill:url(#SVGID_32_);}
	.st45{fill:url(#SVGID_33_);}
	.st46{fill:url(#SVGID_34_);}
	.st47{fill:url(#SVGID_35_);}
	.st48{fill:url(#SVGID_36_);}
	.st49{fill:url(#SVGID_37_);}
	.st50{fill:url(#SVGID_38_);}
	.st51{fill:url(#SVGID_39_);}
	.st52{fill:url(#SVGID_40_);}
	.st53{fill:url(#SVGID_41_);}
	.st54{fill:url(#SVGID_42_);}
	.st55{fill:#020203;}
	.st56{fill:url(#SVGID_43_);}
	.st57{fill:url(#SVGID_44_);}
	.st58{fill:url(#SVGID_45_);}
	.st59{fill:url(#SVGID_46_);}
	.st60{fill:url(#SVGID_47_);}
	.st61{fill:url(#SVGID_48_);}
	.st62{fill:url(#SVGID_49_);}
	.st63{fill:url(#SVGID_50_);}
	.st64{fill:url(#SVGID_51_);}
	.st65{fill:url(#SVGID_52_);}
	.st66{fill:url(#SVGID_53_);}
	.st67{fill:url(#SVGID_54_);}
	.st68{fill:url(#SVGID_55_);}
	.st69{fill:url(#SVGID_56_);}
	.st70{fill:url(#SVGID_57_);}
	.st71{fill:url(#SVGID_58_);}
	.st72{fill:url(#SVGID_59_);}
	.st73{fill:url(#SVGID_60_);}
	.st74{fill:url(#SVGID_61_);}
	.st75{fill:url(#SVGID_62_);}
	.st76{fill:url(#SVGID_63_);}
	.st77{fill:url(#SVGID_64_);}
	.st78{fill:url(#SVGID_65_);}
	.st79{fill:url(#SVGID_66_);}
	.st80{fill:url(#SVGID_67_);}
	.st81{fill:url(#SVGID_68_);}
	.st82{fill:url(#SVGID_69_);}
	.st83{fill:url(#SVGID_70_);}
	.st84{fill:url(#SVGID_71_);}
	.st85{fill:url(#SVGID_72_);}
	.st86{fill:url(#SVGID_73_);}
	.st87{fill:url(#SVGID_74_);}
	.st88{fill:url(#SVGID_75_);}
	.st89{fill:url(#SVGID_76_);}
	.st90{fill:url(#SVGID_77_);}
	.st91{fill:url(#SVGID_78_);}
	.st92{fill:url(#SVGID_79_);}
	.st93{fill:url(#SVGID_80_);}
	.st94{fill:url(#SVGID_81_);}
	.st95{fill:url(#SVGID_82_);}
	.st96{fill:url(#SVGID_83_);}
	.st97{fill:url(#SVGID_84_);}
</style>
<g>
	<g>
		<path class="st2" d="M58.6,55.1L55.6,30c-0.1-0.7-0.5-1.6-1-2.1l-11.9-12c-0.5-0.5-1.5-0.9-2.2-0.9h-4.7l-3.8-3.7
			c-0.5-0.5-0.9-0.4-1.1-0.3c-0.2,0.1-0.5,0.3-0.5,1V13l-1.1-0.9c-0.4-0.3-0.8-0.4-1.1-0.2c-0.3,0.2-0.5,0.5-0.5,1v1.5
			c0,0.5-0.2,1.2-0.5,1.6L14.9,32.6c-0.5,0.6-0.5,1.7-0.2,2.4l3.5,6.9c0.4,0.8,1.3,1.1,2.1,0.9l10.3-3.5l-6.6,6.7
			c-0.5,0.5-1,1.3-1.2,2l-2.4,7.3H18c-1.5,0-2.6,1.2-2.6,2.7v4.7c0,1.5,1.2,2.7,2.6,2.7h40.5c1.5,0,2.6-1.2,2.6-2.7v-4.7
			C61.1,56.3,60,55.1,58.6,55.1z"/>
	</g>
	<g>
		<g>
			<path class="st3" d="M60.8,62.7c0,1.1-0.9,2-2,2H17.7c-1.1,0-2-0.9-2-2v-5c0-1.1,0.9-2,2-2h41.1c1.1,0,2,0.9,2,2V62.7z"/>
		</g>
		<g>
			<g>
				<path class="st3" d="M58.2,55.6l-3-25.7c-0.1-0.5-0.4-1.3-0.8-1.7L42.3,16.2c-0.4-0.4-1.2-0.7-1.7-0.7h-7
					c-0.5,0-1.4-0.3-1.8-0.6l-2.9-2.4c-0.4-0.3-0.8-0.2-0.8,0.4v1.6c0,0.6-0.3,1.4-0.6,1.8L15.1,32.9c-0.3,0.4-0.4,1.2-0.1,1.7
					l1.6,3.2c0.3,0.5,0.7,1.3,0.9,1.8l1,2c0.3,0.5,0.9,0.7,1.4,0.6l11.6-3.9c0.5-0.2,0.6,0,0.2,0.4l-7.6,7.6c-0.4,0.4-0.8,1.1-1,1.7
					l-2.5,7.7"/>
			</g>
			<polyline class="st3" points="35.6,15.5 51.1,30.7 53.6,55.6 			"/>
			<polyline class="st3" points="31.9,38.2 37.1,36.5 37.1,29 			"/>
			<circle class="st3" cx="27.6" cy="23.1" r="1.2"/>
		</g>
		<polyline class="st3" points="38.7,15.5 53.1,30 55.7,55.6 		"/>
		<g>
			<path class="st3" d="M30.9,14.1v-2.3c0-0.5,0.3-0.7,0.7-0.3l4,3.9"/>
		</g>
	</g>
</g>
</svg>
