<?xml version="1.0" encoding="utf-8"?>
<!-- Generator: Adobe Illustrator 21.0.0, SVG Export Plug-In . SVG Version: 6.00 Build 0)  -->
<svg version="1.1" id="Ebene_1" xmlns="http://www.w3.org/2000/svg" xmlns:xlink="http://www.w3.org/1999/xlink" x="0px" y="0px"
	 viewBox="0 0 76 76" style="enable-background:new 0 0 76 76;" xml:space="preserve">
<style type="text/css">
	.st0{fill:#2C8E8B;}
	.st1{fill:#100B17;}
	.st2{fill:none;stroke:#22192A;stroke-miterlimit:10;}
</style>
<g>
	<g>
		<path class="st0" d="M17.5,63.9c-1.2,0-2.2-1-2.2-2.2V57c0-1.2,1-2.2,2.2-2.2h6.9L29,38.1h-5.3c-1.2,0-2.2-1-2.2-2.2v-2.7
			c0-1.2,1-2.2,2.2-2.2H31l-0.8-0.8c-1.7-1.9-2.7-4.3-2.7-6.9c0-5.7,4.6-10.3,10.3-10.3c5.7,0,10.3,4.6,10.3,10.3
			c0,2.5-0.9,5-2.7,6.9l-0.8,0.8H52c1.2,0,2.2,1,2.2,2.2V36c0,1.2-1,2.2-2.2,2.2h-4.5l4.2,16.7h6.5c1.2,0,2.2,1,2.2,2.2v4.7
			c0,1.2-1,2.2-2.2,2.2H17.5z"/>
		<path class="st1" d="M37.9,13.5c5.4,0,9.8,4.4,9.8,9.8c0,2.4-0.9,4.7-2.5,6.6l-1.5,1.7h2.2H52c0.9,0,1.7,0.7,1.7,1.7V36
			c0,0.9-0.7,1.7-1.7,1.7h-3.8h-1.3l0.3,1.2l4,15.7l0.2,0.8h0.8h6.1c0.9,0,1.7,0.7,1.7,1.7v4.7c0,0.9-0.7,1.7-1.7,1.7H17.5
			c-0.9,0-1.7-0.7-1.7-1.7V57c0-0.9,0.7-1.7,1.7-1.7H24h0.8l0.2-0.7l4.4-15.7l0.4-1.3h-1.3h-4.6c-0.9,0-1.7-0.7-1.7-1.7v-2.7
			c0-0.9,0.7-1.7,1.7-1.7h6.1h2.2l-1.5-1.7c-1.6-1.8-2.5-4.1-2.5-6.6C28.1,17.9,32.5,13.5,37.9,13.5 M37.9,12.5
			c-6,0-10.8,4.8-10.8,10.8c0,2.7,1,5.3,2.8,7.2h-6.1c-1.5,0-2.7,1.2-2.7,2.7V36c0,1.5,1.2,2.7,2.7,2.7h4.6L24,54.3h-6.5
			c-1.5,0-2.7,1.2-2.7,2.7v4.7c0,1.5,1.2,2.7,2.7,2.7h40.8c1.5,0,2.7-1.2,2.7-2.7V57c0-1.5-1.2-2.7-2.7-2.7h-6.1l-4-15.7H52
			c1.5,0,2.7-1.2,2.7-2.7v-2.7c0-1.5-1.2-2.7-2.7-2.7h-6.1c1.8-2,2.8-4.5,2.8-7.2C48.7,17.4,43.8,12.5,37.9,12.5L37.9,12.5z"/>
	</g>
	<g>
		<path class="st2" d="M60.4,61.9c0,1.1-0.9,2-2,2H17.4c-1.1,0-2-0.9-2-2v-5c0-1.1,0.9-2,2-2h41.1c1.1,0,2,0.9,2,2V61.9z"/>
	</g>
	<g>
		<g>
			<path class="st2" d="M31.2,31.1c-2.2-1.9-3.5-4.7-3.5-7.8c0-5.7,4.6-10.3,10.3-10.3s10.3,4.6,10.3,10.3c0,3.1-1.4,5.9-3.5,7.8"/>
			<g>
				<path class="st2" d="M54.2,36.1c0,1.1-0.9,2-2,2H23.6c-1.1,0-2-0.9-2-2v-3c0-1.1,0.9-2,2-2h28.5c1.1,0,2,0.9,2,2V36.1z"/>
			</g>
		</g>
		<line class="st2" x1="24.3" y1="54.9" x2="29.3" y2="38.1"/>
		<line class="st2" x1="47.3" y1="38.1" x2="51.8" y2="54.9"/>
		<line class="st2" x1="37.9" y1="38.1" x2="37.9" y2="54.9"/>
		<line class="st2" x1="34.2" y1="38.1" x2="30.4" y2="54.8"/>
		<line class="st2" x1="41.9" y1="38.1" x2="45.7" y2="54.8"/>
	</g>
</g>
</svg>
