<svg id="Ebene_1" data-name="Ebene 1" xmlns="http://www.w3.org/2000/svg" viewBox="0 0 76 76"><defs><style>.cls-1,.cls-3{fill:#288e8b;}.cls-2{fill:none;}.cls-2,.cls-3{stroke:#211829;stroke-miterlimit:10;}</style></defs><title>koenigin blau</title><rect class="cls-1" x="15" y="57.12" width="46" height="9.2" rx="2" ry="2"/><rect class="cls-2" x="15" y="57.12" width="46" height="9.2" rx="2" ry="2"/><rect class="cls-3" x="23.16" y="53.61" width="29.61" height="3.54"/><polygon class="cls-3" points="57.38 32.1 50.92 50.57 25.38 50.57 18.58 32.1 34.32 32.1 38.15 35.94 41.99 32.1 57.38 32.1"/><rect class="cls-3" x="24.16" y="50.57" width="27.6" height="3.03"/><path class="cls-1" d="M57.82,18.29a3.27,3.27,0,0,1,.08,1v10.2a1,1,0,0,1-1,1h-14a2.78,2.78,0,0,1-1.71-.71l-2.37-2.37a1,1,0,0,0-1.41,0l-2.37,2.37a2.78,2.78,0,0,1-1.71.71H19a1,1,0,0,1-1-1V19.8c0-.55,0-1,0-1h.07l.6-.1a5.16,5.16,0,0,0,.9-.36,3,3,0,0,1,.8.64l6.23,6.4c.38.39.78.27.88-.27l1.89-9.95c.1-.54.28-1,.39-1h.51a1.25,1.25,0,0,1,1.31.55L37.42,23a.66.66,0,0,0,1.15,0l5.84-8.31c.32-.45.66-.77.77-.71l.1,0a2.78,2.78,0,0,0,1,.18h.12a4.73,4.73,0,0,1,.26,1l1.86,9.94c.1.54.5.66.89.27L56,18.67c.39-.39.75-.68.81-.65l.26.12.17.05.22.05.13,0Z"/><path class="cls-2" d="M57.82,18.29a3.27,3.27,0,0,1,.08,1v10.2a1,1,0,0,1-1,1h-14a2.78,2.78,0,0,1-1.71-.71l-2.37-2.37a1,1,0,0,0-1.41,0l-2.37,2.37a2.78,2.78,0,0,1-1.71.71H19a1,1,0,0,1-1-1V19.8c0-.55,0-1,0-1h.07l.6-.1a5.16,5.16,0,0,0,.9-.36,3,3,0,0,1,.8.64l6.23,6.4c.38.39.78.27.88-.27l1.89-9.95c.1-.54.28-1,.39-1h.51a1.25,1.25,0,0,1,1.31.55L37.42,23a.66.66,0,0,0,1.15,0l5.84-8.31c.32-.45.66-.77.77-.71l.1,0a2.78,2.78,0,0,0,1,.18h.12a4.73,4.73,0,0,1,.26,1l1.86,9.94c.1.54.5.66.89.27L56,18.67c.39-.39.75-.68.81-.65l.26.12.17.05.22.05.13,0Z"/><rect class="cls-1" x="16.39" y="30.49" width="43.22" height="3.06" rx="1" ry="1"/><rect class="cls-2" x="16.39" y="30.49" width="43.22" height="3.06" rx="1" ry="1"/><polygon class="cls-3" points="43.26 31.82 42.98 32.1 41.53 33.55 38.15 36.93 34.77 33.55 33.04 31.82 33.81 31.05 38.15 26.71 41.93 30.49 42.49 31.05 43.26 31.82"/><path class="cls-3" d="M32.45,12.23a2.57,2.57,0,0,1-2.56,2.56l-.3,0a2.55,2.55,0,1,1,2.86-2.54Z"/><path class="cls-3" d="M21.45,16.65a2.57,2.57,0,0,1-2.56,2.56l-.3,0a2.55,2.55,0,1,1,2.86-2.54Z"/><path class="cls-3" d="M59.45,16.65a2.57,2.57,0,0,1-2.56,2.56l-.3,0a2.55,2.55,0,1,1,2.86-2.54Z"/><path class="cls-3" d="M48.45,12.23a2.57,2.57,0,0,1-2.56,2.56l-.3,0a2.55,2.55,0,1,1,2.86-2.54Z"/></svg>