<?xml version="1.0" encoding="utf-8"?>
<!-- Generator: Adobe Illustrator 21.0.0, SVG Export Plug-In . SVG Version: 6.00 Build 0)  -->
<svg version="1.1" id="Ebene_1" xmlns="http://www.w3.org/2000/svg" xmlns:xlink="http://www.w3.org/1999/xlink" x="0px" y="0px"
	 viewBox="0 0 76 76" style="enable-background:new 0 0 76 76;" xml:space="preserve">
<style type="text/css">
	.st0{fill:#2C8E8B;}
	.st1{fill:none;stroke:#22192A;stroke-miterlimit:10;}
</style>
<g>
	<g>
		<path class="st0" d="M58.3,55.6h-3.4V52H53l4.3-19.3c0.1-0.4,0-0.9-0.3-1.2c-0.3-0.3-0.7-0.5-1.1-0.5h-4l0-1.5
			c0-0.9-0.4-1.3-1.2-1.3l-0.1-0.3v-3.4h4.4c0.9,0,1.7-0.7,1.7-1.6l0-11.3c0-0.9-0.3-1.3-1.2-1.3h-3.2c-0.9,0-1.3,0.4-1.3,1.3V16
			c0,0.3-0.5,0.9-0.8,0.9h-3.5c-0.3,0-0.9-0.7-0.9-0.9v-4.4c0-0.9-0.3-1.2-1.2-1.2H31.2c-0.9,0-1.1,0.3-1.1,1.2V16c0,0.3-0.7,1-1,1
			h-3.5c-0.3,0-0.9-0.7-0.9-1v-4.4c0-0.9-0.4-1-1.2-1h-3c-0.9,0-1.3,0.1-1.3,1L19.3,23c0,0.9,0.3,1.6,1.2,1.6h4.9V28h-0.1
			c-0.9,0-1.6,0.7-1.6,1.6v1.5H20c-0.4,0-0.8,0.2-1.1,0.5c-0.3,0.3-0.3,0.8-0.2,1.2L23.3,52H21v3.6h-3.4c-1.5,0-2.7,1.2-2.7,2.7V63
			c0,1.5,1.2,2.4,2.7,2.4l40.8,0c1.5,0,2.1-0.8,2.1-2.3v-4.7C60.4,56.8,59.8,55.6,58.3,55.6z"/>
	</g>
	<g>
		<path class="st1" d="M60.5,63.1c0,1.1-1,2-2.1,2h-41c-1.1,0-2-0.9-2-2v-5c0-1.1,0.9-2,2-2h41.1c1.1,0,2,0.9,2,2V63.1L60.5,63.1z"
			/>
	</g>
	<polyline class="st1" points="21.5,56.1 21.5,52.5 54.4,52.5 54.4,56.1 	"/>
	<g>
		<path class="st1" d="M33.8,52.5v-6.1c0,0,0-4.1,4.1-4.1"/>
		<path class="st1" d="M42,52.5v-6.1c0,0,0-4.1-4.1-4.1"/>
		<line class="st1" x1="37.9" y1="42.3" x2="37.9" y2="52.5"/>
		<line class="st1" x1="33.8" y1="46.4" x2="42" y2="46.4"/>
	</g>
	<line class="st1" x1="50.5" y1="28.5" x2="50.5" y2="24.1"/>
	<line class="st1" x1="25.4" y1="24.1" x2="25.4" y2="28.5"/>
	<g>
		<path class="st1" d="M55.4,24.1c0.5,0,1-0.5,1-1v-5c0-0.5,0-1.5,0-2v-4.5c0-0.6-0.5-1-1-1h-3.3c-0.5,0-1,0.4-1,1v4.5
			c0,0.5-0.4,1-1,1h-3.7c-0.5,0-1-0.5-1-1v-4.5c0-0.6-0.5-1-1-1H31.2c-0.5,0-1,0.4-1,1v4.5c0,0.5-0.5,1-1,1h-3.7c-0.6,0-1-0.5-1-1
			v-4.5c0-0.6-0.5-1-1-1h-3.1c-0.5,0-1,0.4-1,1v11.5c0,0.5,0.5,1,1,1H55.4z"/>
	</g>
	<g>
		<path class="st1" d="M51.6,31.6v-2.1c0-0.6-0.5-1-1-1h-8.8c-0.6,0-1.5,0-2,0h-3.7c-0.5,0-1.5,0-2,0h-8.9c-0.5,0-1,0.4-1,1v2.1"/>
	</g>
	<g>
		<path class="st1" d="M23.9,52.5l-4.8-20c-0.1-0.5,0.2-1,0.8-1H56c0.6,0,0.9,0.4,0.8,1l-4.4,20"/>
	</g>
</g>
</svg>
